<svg xmlns="http://www.w3.org/2000/svg" viewBox="0 0 100 100">
  <rect width="100" height="100" rx="22" fill="#a6321c"/>
  <path transform="translate(10.249 79.922) scale(0.078638 -0.078638)" d="M140 579C146 520 110 462 78 439C46 421 26 391 39 354C56 315 108 308 139 333C170 358 191 411 181 483H812C802 448 789 403 779 371L755 389L703 330H558V421C582 425 589 434 591 446L440 460V330H304L181 378V-14H197C245 -14 296 12 296 23V301H440V-89H461C506 -89 558 -68 558 -57V301H713V130C713 118 710 112 695 112C677 112 600 116 600 116V103C640 95 659 83 671 65C683 48 686 19 689 -18C814 -7 831 38 831 116V282C851 286 864 295 871 303L791 362C837 387 900 429 938 458C959 460 969 462 976 470L870 573L808 511H596C652 553 711 606 747 645C770 644 781 653 785 665L644 701H911C925 701 935 706 938 717C894 757 819 814 819 814L755 729H561V812C585 816 592 825 593 837L439 850V729H70L79 701H268C295 657 318 593 317 537C412 450 530 633 295 701H619C607 645 586 568 567 511H176C172 532 164 555 154 579Z" fill="#f5f1e8"/>
</svg>
